<?xml version="1.0" encoding="utf-8"?>
<!-- Generator: Adobe Illustrator 24.3.0, SVG Export Plug-In . SVG Version: 6.00 Build 0)  -->
<svg version="1.1" id="Layer_1" xmlns="http://www.w3.org/2000/svg" xmlns:xlink="http://www.w3.org/1999/xlink" x="0px" y="0px"
	 viewBox="0 0 1500 1500" style="enable-background:new 0 0 1500 1500;" xml:space="preserve">
<style type="text/css">
	.st0{fill:#FF00FF;}
	.st1{opacity:0.2;fill:#00FFFF;}
	.st2{fill:#4196CD;}
	.st3{fill:#2472B2;}
</style>
<path class="st0" d="M349.33,833.12c0.35-0.17,0.74-0.31,1.15-0.42C350.11,832.86,349.72,833.01,349.33,833.12z"/>
<path class="st1" d="M350.48,832.7c-0.37,0.17-0.76,0.31-1.15,0.42C349.68,832.95,350.06,832.81,350.48,832.7z"/>
<path class="st1" d="M350.48,832.7c-0.37,0.17-0.76,0.31-1.15,0.42C349.68,832.95,350.06,832.81,350.48,832.7z"/>
<path class="st1" d="M350.48,832.7c-0.37,0.17-0.76,0.31-1.15,0.42C349.68,832.95,350.06,832.81,350.48,832.7z"/>
<g>
	<g>
		<path class="st2" d="M252.3,738.08c-4.44,8.18-6.29,17.07-5.83,25.73c4.64-8.77,7.3-18.62,7.54-28.89L252.3,738.08z"/>
	</g>
	<g>
		<path class="st2" d="M324.48,707.1c-23.63-12.82-45.55-18.11-48.97-11.8l-13.85,25.52c3.48,20.22-1.67,40.05-12.83,55.61
			c3.73,11.41,11.65,21.47,23.03,27.64c23.63,12.82,53.17,4.06,65.99-19.57l23.21-42.78C364.49,735.43,348.11,719.93,324.48,707.1z
			 M277.41,715.6c0.01-0.03-0.08,0.14,0.18-0.32c0-0.01,0.01-0.02,0.01-0.02c0.77-1.42,2.54-1.94,3.96-1.17l0.01-0.01l20.53,11.14
			l-0.01,0.01c1.42,0.77,1.94,2.54,1.17,3.96c0,0.01-0.01,0.01-0.01,0.02c-0.1,0.18-0.14,0.26-0.15,0.28c0-0.01,0.01-0.01,0.01-0.02
			c0,0,0-0.01,0,0c0,0,0,0,0,0c-0.01,0.01-0.03,0.05-0.01,0.02c-3.71,6.81-12.55,9.41-19.63,5.57
			C276.38,731.21,273.71,722.43,277.41,715.6z M308.61,790.79c-0.68,1.26-2.26,1.73-3.52,1.04l-41.07-22.28
			c-1.26-0.68-1.73-2.26-1.04-3.52c6.84-12.6,22.6-17.27,35.2-10.44C310.77,762.43,315.44,778.19,308.61,790.79z M343.19,750.86
			c0,0.01-0.01,0.01-0.01,0.02c-0.1,0.18-0.14,0.26-0.15,0.28c0-0.01,0.01-0.01,0.01-0.02c0,0,0-0.01,0,0c0,0,0,0,0,0
			c-0.01,0.01-0.03,0.05-0.01,0.02c-3.71,6.81-12.55,9.41-19.63,5.57c-7.09-3.85-9.76-12.63-6.06-19.46
			c0.01-0.03-0.08,0.14,0.18-0.32c0-0.01,0.01-0.02,0.01-0.02c0.77-1.42,2.54-1.94,3.96-1.17l0.01-0.01l20.53,11.14l-0.01,0.01l0,0
			C343.44,747.66,343.96,749.44,343.19,750.86z"/>
	</g>
</g>
<path class="st3" d="M252.81,720.79l-12.54-64.04c-1.85-9.43-32.02-11.46-67.38-4.53s-62.54,20.19-60.69,29.62l12.54,64.04
	c6.93,35.37,41.21,58.42,76.58,51.49C236.69,790.44,259.74,756.16,252.81,720.79z M139.01,719.14l0-0.02
	c-2.12,0.42-4.18-0.97-4.59-3.09c0-0.01,0-0.02,0-0.03c-0.07-0.37-0.09-0.44-0.09-0.43c0,0.01,0,0.03,0.01,0.04
	c0,0.01,0,0.02,0,0.01c0,0,0-0.01,0-0.01c0-0.02-0.01-0.04-0.01-0.04c-1.97-10.2,4.95-20.43,15.54-22.51
	c10.61-2.08,20.87,4.72,22.87,14.94c0.01,0.04-0.04-0.21,0.09,0.48c0,0.01,0.01,0.02,0.01,0.03c0.42,2.12-0.97,4.18-3.09,4.59
	l0,0.02L139.01,719.14z M196.54,772.95c-18.86,3.69-37.15-8.6-40.84-27.46c-0.37-1.89,0.86-3.72,2.75-4.08l61.48-12.04
	c1.89-0.37,3.71,0.86,4.08,2.75C227.7,750.97,215.4,769.26,196.54,772.95z M229.51,701.4l0,0.02l-30.74,6.02l0-0.02l0,0
	c-2.12,0.42-4.18-0.97-4.59-3.09c0-0.01,0-0.02,0-0.03c-0.07-0.37-0.09-0.44-0.09-0.43c0,0.01,0,0.03,0.01,0.04
	c0,0.01,0,0.02,0,0.01c0,0,0-0.01,0-0.01c0-0.02-0.01-0.04-0.01-0.04c-1.97-10.2,4.95-20.43,15.54-22.51
	c10.61-2.08,20.87,4.72,22.87,14.94c0.01,0.04-0.04-0.21,0.09,0.48c0,0.01,0.01,0.02,0.01,0.03
	C233.02,698.93,231.63,700.98,229.51,701.4z"/>
<g>
	<g>
		<path class="st3" d="M323.49,866.83c-20.52-44.49-69.42-70.92-119.64-61.09c-35.29,6.91-63.21,30.17-77.47,60.36
			c27.56,23.67,62.28,36.58,98.99,36.58C261.69,902.68,296.06,890.03,323.49,866.83z"/>
	</g>
</g>
<path class="st3" d="M225.36,928.72C127.01,928.72,47,848.71,47,750.36S127.01,572,225.36,572s178.36,80.01,178.36,178.36
	S323.71,928.72,225.36,928.72z M225.36,589.4c-88.75,0-160.96,72.21-160.96,160.96s72.21,160.96,160.96,160.96
	s160.96-72.21,160.96-160.96S314.11,589.4,225.36,589.4z"/>
</svg>
